%
M48
M72
T01C0.0200
T02C0.0250
T03C0.0320
T04C0.0354
T05C0.0400
T06C0.1300
%
T01
X7201Y2342
X15416Y4977
T02
X14561Y4802
X16341Y4179
X13781Y4082
X9711Y2742
X6240Y4238
X5466Y4877
X5613Y5417
X5201Y6242
X6240Y6692
X8501Y6242
X8101Y5202
X12021Y5682
X13621Y5842
X14531Y6292
X15221Y6322
X15861Y6242
X16371Y6132
X15461Y5762
X14021Y6802
X13541Y8322
X13941Y8722
X12901Y8802
X12181Y8962
X5317Y8041
X3141Y8162
X4880Y9098
X19101Y4142
X19621Y5522
X25541Y7122
X25861Y6642
X25941Y6082
T03
X10902Y5720
X10902Y3820
T04
X2463Y4356
X2463Y6088
T05
X8308Y8759
X9308Y8759
X10308Y8759
X11308Y8759
X18457Y8741
X19457Y8741
X20457Y8741
X21457Y8741
X22457Y8741
X23457Y8741
X24457Y8741
X25457Y8741
X26853Y8643
X26853Y7643
X26853Y6643
X26853Y5643
X24492Y5027
X23492Y5027
X22492Y5027
X21492Y5027
X20492Y5027
X20492Y4027
X21492Y4027
X22492Y4027
X23492Y4027
X24492Y4027
X26853Y3643
X26853Y2643
X26853Y1643
X25353Y1482
X24353Y1482
X23353Y1482
X22353Y1482
X21353Y1482
X20353Y1482
X19353Y1482
X18353Y1482
X17151Y1492
X16151Y1492
X14920Y1482
X13920Y1482
X12920Y1482
X11920Y1482
X10920Y1482
X9920Y1482
X8920Y1482
X7920Y1482
X26853Y4643
T06
X1340Y1562
X1361Y8901
X28821Y8922
X28801Y1562
M30
