G75*
G70*
%OFA0B0*%
%FSLAX24Y24*%
%IPPOS*%
%LPD*%
%AMOC8*
5,1,8,0,0,1.08239X$1,22.5*
%
%ADD10C,0.0000*%
%ADD11R,0.0591X0.0197*%
%ADD12R,0.0197X0.0591*%
%ADD13C,0.0600*%
%ADD14OC8,0.0600*%
%ADD15C,0.0520*%
%ADD16R,0.0984X0.0787*%
%ADD17R,0.1299X0.0787*%
%ADD18R,0.1220X0.0197*%
%ADD19R,0.0394X0.0433*%
%ADD20R,0.0433X0.0394*%
%ADD21C,0.0740*%
%ADD22C,0.0100*%
%ADD23C,0.0120*%
%ADD24C,0.0410*%
%ADD25C,0.0360*%
%ADD26C,0.0160*%
%ADD27C,0.0240*%
%ADD28C,0.0320*%
D10*
X000101Y000301D02*
X000101Y010180D01*
X030054Y010180D01*
X030054Y000301D01*
X000101Y000301D01*
X000690Y001562D02*
X000692Y001612D01*
X000698Y001662D01*
X000708Y001712D01*
X000721Y001760D01*
X000738Y001808D01*
X000759Y001854D01*
X000783Y001898D01*
X000811Y001940D01*
X000842Y001980D01*
X000876Y002017D01*
X000913Y002052D01*
X000952Y002083D01*
X000993Y002112D01*
X001037Y002137D01*
X001083Y002159D01*
X001130Y002177D01*
X001178Y002191D01*
X001227Y002202D01*
X001277Y002209D01*
X001327Y002212D01*
X001378Y002211D01*
X001428Y002206D01*
X001478Y002197D01*
X001526Y002185D01*
X001574Y002168D01*
X001620Y002148D01*
X001665Y002125D01*
X001708Y002098D01*
X001748Y002068D01*
X001786Y002035D01*
X001821Y001999D01*
X001854Y001960D01*
X001883Y001919D01*
X001909Y001876D01*
X001932Y001831D01*
X001951Y001784D01*
X001966Y001736D01*
X001978Y001687D01*
X001986Y001637D01*
X001990Y001587D01*
X001990Y001537D01*
X001986Y001487D01*
X001978Y001437D01*
X001966Y001388D01*
X001951Y001340D01*
X001932Y001293D01*
X001909Y001248D01*
X001883Y001205D01*
X001854Y001164D01*
X001821Y001125D01*
X001786Y001089D01*
X001748Y001056D01*
X001708Y001026D01*
X001665Y000999D01*
X001620Y000976D01*
X001574Y000956D01*
X001526Y000939D01*
X001478Y000927D01*
X001428Y000918D01*
X001378Y000913D01*
X001327Y000912D01*
X001277Y000915D01*
X001227Y000922D01*
X001178Y000933D01*
X001130Y000947D01*
X001083Y000965D01*
X001037Y000987D01*
X000993Y001012D01*
X000952Y001041D01*
X000913Y001072D01*
X000876Y001107D01*
X000842Y001144D01*
X000811Y001184D01*
X000783Y001226D01*
X000759Y001270D01*
X000738Y001316D01*
X000721Y001364D01*
X000708Y001412D01*
X000698Y001462D01*
X000692Y001512D01*
X000690Y001562D01*
X002286Y004356D02*
X002288Y004382D01*
X002294Y004408D01*
X002304Y004433D01*
X002317Y004456D01*
X002333Y004476D01*
X002353Y004494D01*
X002375Y004509D01*
X002398Y004521D01*
X002424Y004529D01*
X002450Y004533D01*
X002476Y004533D01*
X002502Y004529D01*
X002528Y004521D01*
X002552Y004509D01*
X002573Y004494D01*
X002593Y004476D01*
X002609Y004456D01*
X002622Y004433D01*
X002632Y004408D01*
X002638Y004382D01*
X002640Y004356D01*
X002638Y004330D01*
X002632Y004304D01*
X002622Y004279D01*
X002609Y004256D01*
X002593Y004236D01*
X002573Y004218D01*
X002551Y004203D01*
X002528Y004191D01*
X002502Y004183D01*
X002476Y004179D01*
X002450Y004179D01*
X002424Y004183D01*
X002398Y004191D01*
X002374Y004203D01*
X002353Y004218D01*
X002333Y004236D01*
X002317Y004256D01*
X002304Y004279D01*
X002294Y004304D01*
X002288Y004330D01*
X002286Y004356D01*
X002286Y006088D02*
X002288Y006114D01*
X002294Y006140D01*
X002304Y006165D01*
X002317Y006188D01*
X002333Y006208D01*
X002353Y006226D01*
X002375Y006241D01*
X002398Y006253D01*
X002424Y006261D01*
X002450Y006265D01*
X002476Y006265D01*
X002502Y006261D01*
X002528Y006253D01*
X002552Y006241D01*
X002573Y006226D01*
X002593Y006208D01*
X002609Y006188D01*
X002622Y006165D01*
X002632Y006140D01*
X002638Y006114D01*
X002640Y006088D01*
X002638Y006062D01*
X002632Y006036D01*
X002622Y006011D01*
X002609Y005988D01*
X002593Y005968D01*
X002573Y005950D01*
X002551Y005935D01*
X002528Y005923D01*
X002502Y005915D01*
X002476Y005911D01*
X002450Y005911D01*
X002424Y005915D01*
X002398Y005923D01*
X002374Y005935D01*
X002353Y005950D01*
X002333Y005968D01*
X002317Y005988D01*
X002304Y006011D01*
X002294Y006036D01*
X002288Y006062D01*
X002286Y006088D01*
X000711Y008901D02*
X000713Y008951D01*
X000719Y009001D01*
X000729Y009051D01*
X000742Y009099D01*
X000759Y009147D01*
X000780Y009193D01*
X000804Y009237D01*
X000832Y009279D01*
X000863Y009319D01*
X000897Y009356D01*
X000934Y009391D01*
X000973Y009422D01*
X001014Y009451D01*
X001058Y009476D01*
X001104Y009498D01*
X001151Y009516D01*
X001199Y009530D01*
X001248Y009541D01*
X001298Y009548D01*
X001348Y009551D01*
X001399Y009550D01*
X001449Y009545D01*
X001499Y009536D01*
X001547Y009524D01*
X001595Y009507D01*
X001641Y009487D01*
X001686Y009464D01*
X001729Y009437D01*
X001769Y009407D01*
X001807Y009374D01*
X001842Y009338D01*
X001875Y009299D01*
X001904Y009258D01*
X001930Y009215D01*
X001953Y009170D01*
X001972Y009123D01*
X001987Y009075D01*
X001999Y009026D01*
X002007Y008976D01*
X002011Y008926D01*
X002011Y008876D01*
X002007Y008826D01*
X001999Y008776D01*
X001987Y008727D01*
X001972Y008679D01*
X001953Y008632D01*
X001930Y008587D01*
X001904Y008544D01*
X001875Y008503D01*
X001842Y008464D01*
X001807Y008428D01*
X001769Y008395D01*
X001729Y008365D01*
X001686Y008338D01*
X001641Y008315D01*
X001595Y008295D01*
X001547Y008278D01*
X001499Y008266D01*
X001449Y008257D01*
X001399Y008252D01*
X001348Y008251D01*
X001298Y008254D01*
X001248Y008261D01*
X001199Y008272D01*
X001151Y008286D01*
X001104Y008304D01*
X001058Y008326D01*
X001014Y008351D01*
X000973Y008380D01*
X000934Y008411D01*
X000897Y008446D01*
X000863Y008483D01*
X000832Y008523D01*
X000804Y008565D01*
X000780Y008609D01*
X000759Y008655D01*
X000742Y008703D01*
X000729Y008751D01*
X000719Y008801D01*
X000713Y008851D01*
X000711Y008901D01*
X028171Y008922D02*
X028173Y008972D01*
X028179Y009022D01*
X028189Y009072D01*
X028202Y009120D01*
X028219Y009168D01*
X028240Y009214D01*
X028264Y009258D01*
X028292Y009300D01*
X028323Y009340D01*
X028357Y009377D01*
X028394Y009412D01*
X028433Y009443D01*
X028474Y009472D01*
X028518Y009497D01*
X028564Y009519D01*
X028611Y009537D01*
X028659Y009551D01*
X028708Y009562D01*
X028758Y009569D01*
X028808Y009572D01*
X028859Y009571D01*
X028909Y009566D01*
X028959Y009557D01*
X029007Y009545D01*
X029055Y009528D01*
X029101Y009508D01*
X029146Y009485D01*
X029189Y009458D01*
X029229Y009428D01*
X029267Y009395D01*
X029302Y009359D01*
X029335Y009320D01*
X029364Y009279D01*
X029390Y009236D01*
X029413Y009191D01*
X029432Y009144D01*
X029447Y009096D01*
X029459Y009047D01*
X029467Y008997D01*
X029471Y008947D01*
X029471Y008897D01*
X029467Y008847D01*
X029459Y008797D01*
X029447Y008748D01*
X029432Y008700D01*
X029413Y008653D01*
X029390Y008608D01*
X029364Y008565D01*
X029335Y008524D01*
X029302Y008485D01*
X029267Y008449D01*
X029229Y008416D01*
X029189Y008386D01*
X029146Y008359D01*
X029101Y008336D01*
X029055Y008316D01*
X029007Y008299D01*
X028959Y008287D01*
X028909Y008278D01*
X028859Y008273D01*
X028808Y008272D01*
X028758Y008275D01*
X028708Y008282D01*
X028659Y008293D01*
X028611Y008307D01*
X028564Y008325D01*
X028518Y008347D01*
X028474Y008372D01*
X028433Y008401D01*
X028394Y008432D01*
X028357Y008467D01*
X028323Y008504D01*
X028292Y008544D01*
X028264Y008586D01*
X028240Y008630D01*
X028219Y008676D01*
X028202Y008724D01*
X028189Y008772D01*
X028179Y008822D01*
X028173Y008872D01*
X028171Y008922D01*
X028151Y001562D02*
X028153Y001612D01*
X028159Y001662D01*
X028169Y001712D01*
X028182Y001760D01*
X028199Y001808D01*
X028220Y001854D01*
X028244Y001898D01*
X028272Y001940D01*
X028303Y001980D01*
X028337Y002017D01*
X028374Y002052D01*
X028413Y002083D01*
X028454Y002112D01*
X028498Y002137D01*
X028544Y002159D01*
X028591Y002177D01*
X028639Y002191D01*
X028688Y002202D01*
X028738Y002209D01*
X028788Y002212D01*
X028839Y002211D01*
X028889Y002206D01*
X028939Y002197D01*
X028987Y002185D01*
X029035Y002168D01*
X029081Y002148D01*
X029126Y002125D01*
X029169Y002098D01*
X029209Y002068D01*
X029247Y002035D01*
X029282Y001999D01*
X029315Y001960D01*
X029344Y001919D01*
X029370Y001876D01*
X029393Y001831D01*
X029412Y001784D01*
X029427Y001736D01*
X029439Y001687D01*
X029447Y001637D01*
X029451Y001587D01*
X029451Y001537D01*
X029447Y001487D01*
X029439Y001437D01*
X029427Y001388D01*
X029412Y001340D01*
X029393Y001293D01*
X029370Y001248D01*
X029344Y001205D01*
X029315Y001164D01*
X029282Y001125D01*
X029247Y001089D01*
X029209Y001056D01*
X029169Y001026D01*
X029126Y000999D01*
X029081Y000976D01*
X029035Y000956D01*
X028987Y000939D01*
X028939Y000927D01*
X028889Y000918D01*
X028839Y000913D01*
X028788Y000912D01*
X028738Y000915D01*
X028688Y000922D01*
X028639Y000933D01*
X028591Y000947D01*
X028544Y000965D01*
X028498Y000987D01*
X028454Y001012D01*
X028413Y001041D01*
X028374Y001072D01*
X028337Y001107D01*
X028303Y001144D01*
X028272Y001184D01*
X028244Y001226D01*
X028220Y001270D01*
X028199Y001316D01*
X028182Y001364D01*
X028169Y001412D01*
X028159Y001462D01*
X028153Y001512D01*
X028151Y001562D01*
D11*
X017384Y003667D03*
X017384Y003982D03*
X017384Y004297D03*
X017384Y004612D03*
X017384Y004927D03*
X017384Y005242D03*
X017384Y005557D03*
X017384Y005872D03*
X017384Y006187D03*
X017384Y006502D03*
X017384Y006817D03*
X012817Y006817D03*
X012817Y006502D03*
X012817Y006187D03*
X012817Y005872D03*
X012817Y005557D03*
X012817Y005242D03*
X012817Y004927D03*
X012817Y004612D03*
X012817Y004297D03*
X012817Y003982D03*
X012817Y003667D03*
D12*
X013526Y002958D03*
X013841Y002958D03*
X014156Y002958D03*
X014471Y002958D03*
X014786Y002958D03*
X015101Y002958D03*
X015416Y002958D03*
X015731Y002958D03*
X016046Y002958D03*
X016361Y002958D03*
X016676Y002958D03*
X016676Y007525D03*
X016361Y007525D03*
X016046Y007525D03*
X015731Y007525D03*
X015416Y007525D03*
X015101Y007525D03*
X014786Y007525D03*
X014471Y007525D03*
X014156Y007525D03*
X013841Y007525D03*
X013526Y007525D03*
D13*
X011308Y008459D02*
X011308Y009059D01*
X010308Y009059D02*
X010308Y008459D01*
X009308Y008459D02*
X009308Y009059D01*
X008308Y009059D02*
X008308Y008459D01*
X018457Y008441D02*
X018457Y009041D01*
X019457Y009041D02*
X019457Y008441D01*
X020457Y008441D02*
X020457Y009041D01*
X021457Y009041D02*
X021457Y008441D01*
X022457Y008441D02*
X022457Y009041D01*
X023457Y009041D02*
X023457Y008441D01*
X024457Y008441D02*
X024457Y009041D01*
X025457Y009041D02*
X025457Y008441D01*
X026553Y008643D02*
X027153Y008643D01*
X027153Y007643D02*
X026553Y007643D01*
X026553Y006643D02*
X027153Y006643D01*
X027153Y005643D02*
X026553Y005643D01*
X026553Y004643D02*
X027153Y004643D01*
X027153Y003643D02*
X026553Y003643D01*
X026553Y002643D02*
X027153Y002643D01*
X025353Y001782D02*
X025353Y001182D01*
X024353Y001182D02*
X024353Y001782D01*
X023353Y001782D02*
X023353Y001182D01*
X022353Y001182D02*
X022353Y001782D01*
X021353Y001782D02*
X021353Y001182D01*
X020353Y001182D02*
X020353Y001782D01*
X019353Y001782D02*
X019353Y001182D01*
X018353Y001182D02*
X018353Y001782D01*
X014920Y001782D02*
X014920Y001182D01*
X013920Y001182D02*
X013920Y001782D01*
X012920Y001782D02*
X012920Y001182D01*
X011920Y001182D02*
X011920Y001782D01*
X010920Y001782D02*
X010920Y001182D01*
X009920Y001182D02*
X009920Y001782D01*
X008920Y001782D02*
X008920Y001182D01*
X007920Y001182D02*
X007920Y001782D01*
X026553Y001643D02*
X027153Y001643D01*
D14*
X024492Y004027D03*
X023492Y004027D03*
X022492Y004027D03*
X021492Y004027D03*
X020492Y004027D03*
X020492Y005027D03*
X021492Y005027D03*
X022492Y005027D03*
X023492Y005027D03*
X024492Y005027D03*
D15*
X010902Y005720D03*
X010902Y003820D03*
D16*
X001282Y003470D03*
X001282Y006974D03*
D17*
X003605Y006974D03*
X003605Y003470D03*
D18*
X003644Y004592D03*
X003644Y004907D03*
X003644Y005222D03*
X003644Y005537D03*
X003644Y005852D03*
D19*
X005748Y008523D03*
X006679Y008525D03*
X006679Y009194D03*
X005748Y009192D03*
D20*
X003843Y009060D03*
X003174Y009060D03*
X005869Y007695D03*
X006538Y007695D03*
D21*
X016151Y001492D03*
X017151Y001492D03*
D22*
X018301Y001534D02*
X018353Y001482D01*
X018351Y001484D01*
X018301Y001534D02*
X018301Y002142D01*
X018101Y002342D01*
X017301Y002342D01*
X017051Y002092D01*
X016301Y002092D01*
X015731Y002662D01*
X015731Y002958D01*
X016046Y002958D02*
X016046Y002647D01*
X016401Y002292D01*
X016951Y002292D01*
X017201Y002542D01*
X018501Y002542D01*
X019353Y001690D01*
X019353Y001482D01*
X019543Y002292D02*
X020353Y001482D01*
X020981Y001854D02*
X021353Y001482D01*
X020981Y001854D02*
X020981Y002242D01*
X020731Y002492D01*
X019601Y002492D01*
X019131Y002962D01*
X016679Y002962D01*
X016361Y002958D02*
X016361Y002632D01*
X016501Y002492D01*
X016851Y002492D01*
X017101Y002742D01*
X019001Y002742D01*
X019451Y002292D01*
X019543Y002292D01*
X019751Y002742D02*
X021601Y002742D01*
X022353Y001990D01*
X022353Y001482D01*
X023353Y001482D02*
X023353Y001690D01*
X022101Y002942D01*
X019851Y002942D01*
X019451Y003342D01*
X018351Y003342D01*
X017711Y003982D01*
X017384Y003982D01*
X017384Y003667D02*
X017676Y003667D01*
X018201Y003142D01*
X019351Y003142D01*
X019751Y002742D01*
X019951Y003142D02*
X022251Y003142D01*
X023051Y002342D01*
X023751Y002342D01*
X024353Y001740D01*
X024353Y001482D01*
X025353Y001482D02*
X025353Y001840D01*
X024651Y002542D01*
X023201Y002542D01*
X022401Y003342D01*
X020051Y003342D01*
X019651Y003742D01*
X018601Y003742D01*
X017731Y004612D01*
X017384Y004612D01*
X017384Y004297D02*
X017696Y004297D01*
X018451Y003542D01*
X019551Y003542D01*
X019951Y003142D01*
X021918Y005602D02*
X022492Y005027D01*
X021918Y005602D02*
X019701Y005602D01*
X019621Y005522D01*
X017301Y007122D02*
X024661Y007122D01*
X025221Y007682D01*
X025701Y007682D01*
X026662Y008643D01*
X026853Y008643D01*
X025457Y008741D02*
X025457Y008239D01*
X024581Y007362D01*
X017421Y007362D01*
X017301Y007482D01*
X017301Y007962D01*
X017061Y008202D01*
X015021Y008202D01*
X014821Y008002D01*
X014821Y007560D01*
X014786Y007525D01*
X014501Y007555D02*
X014471Y007525D01*
X014501Y007555D02*
X014501Y008002D01*
X014901Y008402D01*
X017181Y008402D01*
X017541Y008042D01*
X017541Y007602D01*
X017581Y007562D01*
X023981Y007562D01*
X024457Y008039D01*
X024457Y008741D01*
X023457Y008741D02*
X023457Y008079D01*
X023141Y007762D01*
X017781Y007762D01*
X017781Y008122D01*
X017301Y008602D01*
X014781Y008602D01*
X014181Y008002D01*
X014181Y007550D01*
X014156Y007525D01*
X013861Y007545D02*
X013841Y007525D01*
X013861Y007545D02*
X013861Y008002D01*
X014661Y008802D01*
X017421Y008802D01*
X018261Y007962D01*
X021901Y007962D01*
X022457Y008519D01*
X022457Y008741D01*
X017301Y007122D02*
X017061Y007362D01*
X017061Y007842D01*
X016901Y008002D01*
X015781Y008002D01*
X015731Y007952D01*
X015731Y007525D01*
X013526Y007525D02*
X013526Y008307D01*
X013541Y008322D01*
X013381Y008722D02*
X012817Y008158D01*
X012817Y006817D01*
X012581Y007282D02*
X012261Y006962D01*
X012261Y006642D01*
X012401Y006502D01*
X012817Y006502D01*
X012817Y006187D02*
X012396Y006187D01*
X012021Y006562D01*
X012021Y007042D01*
X012181Y007202D01*
X012181Y008962D01*
X012581Y008482D02*
X012901Y008802D01*
X013381Y008722D02*
X013941Y008722D01*
X012581Y008482D02*
X012581Y007282D01*
X012817Y005872D02*
X012847Y005842D01*
X013621Y005842D01*
D23*
X015381Y005842D01*
X015461Y005762D01*
X016371Y006132D02*
X016676Y006227D01*
X016676Y007525D01*
X016361Y007525D02*
X016361Y006722D01*
X015861Y006242D01*
X015221Y006322D02*
X016021Y006962D01*
X016021Y007500D01*
X016046Y007525D01*
X015416Y007525D02*
X015416Y007077D01*
X015386Y007027D01*
X015051Y006692D01*
X014931Y006692D01*
X014531Y006292D01*
X017384Y006187D02*
X017409Y006162D01*
X024741Y006162D01*
X024901Y006002D01*
X024901Y005762D01*
X025381Y005282D01*
X025381Y004722D01*
X026021Y004082D01*
X026021Y003442D01*
X026819Y002643D01*
X026853Y002643D01*
X026853Y001650D02*
X025781Y002722D01*
X025781Y003922D01*
X025141Y004562D01*
X025141Y005122D01*
X024661Y005602D01*
X024661Y005882D01*
X017394Y005882D01*
X017384Y005872D01*
X017384Y006502D02*
X024961Y006502D01*
X025141Y006322D01*
X025141Y005922D01*
X025621Y005442D01*
X025621Y004875D01*
X026853Y003643D01*
X026853Y004643D02*
X026054Y005362D01*
X025701Y005682D01*
X025381Y006002D01*
X025381Y006642D01*
X025206Y006817D01*
X017384Y006817D01*
X017384Y005242D02*
X018151Y005242D01*
X018365Y005027D01*
X020492Y005027D01*
X019101Y004142D02*
X019001Y004242D01*
X018601Y004242D01*
X017916Y004927D01*
X017384Y004927D01*
X012817Y004927D02*
X011695Y004927D01*
X010902Y005720D01*
X008501Y006242D02*
X008501Y001901D01*
X008920Y001482D01*
X008920Y001541D01*
X009621Y002242D01*
X010341Y002242D01*
X010581Y002482D01*
X011221Y002482D01*
X011461Y002722D01*
X012101Y002722D01*
X012341Y002962D01*
X012341Y003842D01*
X012481Y003982D01*
X012817Y003982D01*
X012396Y004297D02*
X012101Y004002D01*
X012101Y003122D01*
X011941Y002962D01*
X011301Y002962D01*
X011061Y002822D01*
X010501Y002822D01*
X010191Y002812D01*
X009991Y002812D01*
X009711Y002742D01*
X010680Y002242D02*
X009920Y001482D01*
X010920Y001482D02*
X011680Y002242D01*
X012261Y002242D01*
X012977Y002958D01*
X013526Y002958D01*
X013841Y002958D02*
X013841Y002542D01*
X013781Y002482D01*
X012920Y002482D01*
X011920Y001482D01*
X012920Y001482D02*
X012920Y001541D01*
X013621Y002242D01*
X013861Y002242D01*
X014156Y002537D01*
X014156Y002958D01*
X014471Y002958D02*
X014471Y002033D01*
X013920Y001482D01*
X014786Y001616D02*
X014786Y002958D01*
X012817Y003118D02*
X012181Y002482D01*
X011541Y002482D01*
X011301Y002242D01*
X010680Y002242D01*
X012817Y003118D02*
X012817Y003667D01*
X012817Y004297D02*
X012396Y004297D01*
X012817Y004612D02*
X011694Y004612D01*
X010902Y003820D01*
X008101Y005202D02*
X007920Y005021D01*
X007920Y001482D01*
X007201Y002342D02*
X006751Y003342D01*
X006751Y004342D01*
X006301Y004792D01*
X006301Y005642D01*
X005701Y006242D01*
X005201Y006242D01*
X004851Y005992D02*
X004851Y006942D01*
X005604Y007695D01*
X005869Y007695D01*
X005869Y008402D01*
X005748Y008523D01*
X006538Y008383D02*
X006538Y007695D01*
X006538Y007230D01*
X006240Y006692D01*
X004851Y005992D02*
X004711Y005852D01*
X003644Y005852D01*
X003644Y005537D02*
X005393Y005537D01*
X005613Y005417D01*
X005219Y005222D02*
X005466Y004877D01*
X005219Y005222D02*
X003644Y005222D01*
X003644Y006994D02*
X003141Y007497D01*
X003141Y008162D01*
X003141Y009027D01*
X003174Y009060D01*
X003843Y009060D02*
X003843Y008665D01*
X005317Y008041D01*
X006538Y008383D02*
X006679Y008525D01*
X016676Y002958D02*
X016679Y002962D01*
X014920Y001482D02*
X014786Y001616D01*
X026853Y001650D02*
X026853Y001643D01*
X026853Y005643D02*
X026414Y006082D01*
X025941Y006082D01*
X025861Y006642D02*
X026851Y006642D01*
X026853Y006643D01*
X026251Y007122D02*
X025541Y007122D01*
X026251Y007122D02*
X026853Y007643D01*
D24*
X025541Y007122D03*
X025861Y006642D03*
X025941Y006082D03*
X019621Y005522D03*
X016371Y006132D03*
X015861Y006242D03*
X015221Y006322D03*
X014531Y006292D03*
X014021Y006802D03*
X013621Y005842D03*
X012021Y005682D03*
X014561Y004802D03*
X016341Y004179D03*
X013781Y004082D03*
X009711Y002742D03*
X006240Y004238D03*
X005466Y004877D03*
X005613Y005417D03*
X005201Y006242D03*
X006240Y006692D03*
X008501Y006242D03*
X008101Y005202D03*
X015461Y005762D03*
X019101Y004142D03*
X013541Y008322D03*
X013941Y008722D03*
X012901Y008802D03*
X012181Y008962D03*
X005317Y008041D03*
X003141Y008162D03*
X004880Y009098D03*
D25*
X015416Y004977D03*
X007201Y002342D03*
D26*
X006240Y004238D02*
X004038Y004238D01*
X003644Y004632D01*
X003644Y004907D01*
X003644Y004632D02*
X003644Y004592D01*
X012021Y005682D02*
X012146Y005557D01*
X012817Y005557D01*
X012817Y005242D02*
X013501Y005242D01*
X013551Y005192D01*
X013601Y005242D01*
X014801Y005242D01*
X015416Y004977D01*
X015416Y002958D01*
X015101Y002958D02*
X015101Y004362D01*
X014561Y004802D01*
X013781Y004962D02*
X013781Y004082D01*
X013781Y004962D02*
X013551Y005192D01*
X016341Y005557D02*
X016341Y004179D01*
X016341Y005557D02*
X017384Y005557D01*
X014181Y006962D02*
X014021Y006802D01*
X014181Y006962D02*
X014981Y006962D01*
X015101Y007082D01*
X015101Y007525D01*
X006679Y009194D02*
X006677Y009192D01*
X005748Y009192D01*
X004975Y009192D01*
X004880Y009098D01*
D27*
X006679Y009194D02*
X007713Y009194D01*
X008308Y008759D01*
D28*
X003644Y006994D02*
X001282Y006994D01*
X001282Y003451D01*
X003644Y003451D01*
X003644Y004632D01*
M02*
