G75*
G70*
%OFA0B0*%
%FSLAX24Y24*%
%IPPOS*%
%LPD*%
%AMOC8*
5,1,8,0,0,1.08239X$1,22.5*
%
%ADD10R,0.0591X0.0197*%
%ADD11R,0.0197X0.0591*%
%ADD12R,0.0984X0.0787*%
%ADD13R,0.1299X0.0787*%
%ADD14R,0.1220X0.0197*%
%ADD15R,0.0394X0.0433*%
%ADD16R,0.0433X0.0394*%
D10*
X012817Y003667D03*
X012817Y003982D03*
X012817Y004297D03*
X012817Y004612D03*
X012817Y004927D03*
X012817Y005242D03*
X012817Y005557D03*
X012817Y005872D03*
X012817Y006187D03*
X012817Y006502D03*
X012817Y006817D03*
X017384Y006817D03*
X017384Y006502D03*
X017384Y006187D03*
X017384Y005872D03*
X017384Y005557D03*
X017384Y005242D03*
X017384Y004927D03*
X017384Y004612D03*
X017384Y004297D03*
X017384Y003982D03*
X017384Y003667D03*
D11*
X016676Y002958D03*
X016361Y002958D03*
X016046Y002958D03*
X015731Y002958D03*
X015416Y002958D03*
X015101Y002958D03*
X014786Y002958D03*
X014471Y002958D03*
X014156Y002958D03*
X013841Y002958D03*
X013526Y002958D03*
X013526Y007525D03*
X013841Y007525D03*
X014156Y007525D03*
X014471Y007525D03*
X014786Y007525D03*
X015101Y007525D03*
X015416Y007525D03*
X015731Y007525D03*
X016046Y007525D03*
X016361Y007525D03*
X016676Y007525D03*
D12*
X001282Y003470D03*
X001282Y006974D03*
D13*
X003605Y006974D03*
X003605Y003470D03*
D14*
X003644Y004592D03*
X003644Y004907D03*
X003644Y005222D03*
X003644Y005537D03*
X003644Y005852D03*
D15*
X005748Y008523D03*
X006679Y008525D03*
X006679Y009194D03*
X005748Y009192D03*
D16*
X003843Y009060D03*
X003174Y009060D03*
X005869Y007695D03*
X006538Y007695D03*
M02*
