G75*
G70*
%OFA0B0*%
%FSLAX24Y24*%
%IPPOS*%
%LPD*%
%AMOC8*
5,1,8,0,0,1.08239X$1,22.5*
%
%ADD10C,0.0680*%
%ADD11OC8,0.0680*%
%ADD12R,0.0474X0.0356*%
%ADD13R,0.0474X0.0513*%
%ADD14C,0.0600*%
%ADD15C,0.0434*%
%ADD16R,0.0671X0.0237*%
%ADD17R,0.0631X0.0710*%
%ADD18C,0.1380*%
%ADD19C,0.0820*%
%ADD20C,0.0490*%
%ADD21C,0.0440*%
D10*
X007920Y001182D02*
X007920Y001782D01*
X008920Y001782D02*
X008920Y001182D01*
X009920Y001182D02*
X009920Y001782D01*
X010920Y001782D02*
X010920Y001182D01*
X011920Y001182D02*
X011920Y001782D01*
X012920Y001782D02*
X012920Y001182D01*
X013920Y001182D02*
X013920Y001782D01*
X014920Y001782D02*
X014920Y001182D01*
X018353Y001182D02*
X018353Y001782D01*
X019353Y001782D02*
X019353Y001182D01*
X020353Y001182D02*
X020353Y001782D01*
X021353Y001782D02*
X021353Y001182D01*
X022353Y001182D02*
X022353Y001782D01*
X023353Y001782D02*
X023353Y001182D01*
X024353Y001182D02*
X024353Y001782D01*
X025353Y001782D02*
X025353Y001182D01*
X026553Y001643D02*
X027153Y001643D01*
X027153Y002643D02*
X026553Y002643D01*
X026553Y003643D02*
X027153Y003643D01*
X027153Y004643D02*
X026553Y004643D01*
X026553Y005643D02*
X027153Y005643D01*
X027153Y006643D02*
X026553Y006643D01*
X026553Y007643D02*
X027153Y007643D01*
X025457Y008441D02*
X025457Y009041D01*
X024457Y009041D02*
X024457Y008441D01*
X023457Y008441D02*
X023457Y009041D01*
X022457Y009041D02*
X022457Y008441D01*
X021457Y008441D02*
X021457Y009041D01*
X020457Y009041D02*
X020457Y008441D01*
X019457Y008441D02*
X019457Y009041D01*
X018457Y009041D02*
X018457Y008441D01*
X011308Y008459D02*
X011308Y009059D01*
X010308Y009059D02*
X010308Y008459D01*
X009308Y008459D02*
X009308Y009059D01*
X008308Y009059D02*
X008308Y008459D01*
X026553Y008643D02*
X027153Y008643D01*
D11*
X024492Y005027D03*
X023492Y005027D03*
X022492Y005027D03*
X021492Y005027D03*
X020492Y005027D03*
X020492Y004027D03*
X021492Y004027D03*
X022492Y004027D03*
X023492Y004027D03*
X024492Y004027D03*
D12*
X010681Y006953D03*
X009736Y006953D03*
X010681Y007327D03*
X010681Y007701D03*
X009736Y007701D03*
D13*
X008893Y007709D03*
X008893Y007039D03*
X011962Y006935D03*
X011962Y007605D03*
X010115Y005603D03*
X010115Y004934D03*
X011689Y004613D03*
X011689Y003944D03*
D14*
X010902Y003820D03*
X010902Y005720D03*
D15*
X002463Y006088D03*
X002463Y004356D03*
D16*
X004284Y005232D03*
X004284Y005488D03*
X004284Y005744D03*
X004284Y006000D03*
X004284Y006256D03*
X004284Y006512D03*
X004284Y006767D03*
X004284Y007023D03*
X004284Y007279D03*
X004284Y007535D03*
X004284Y007791D03*
X004284Y008047D03*
X004284Y008303D03*
X004284Y008559D03*
X007138Y008559D03*
X007138Y008303D03*
X007138Y008047D03*
X007138Y007791D03*
X007138Y007535D03*
X007138Y007279D03*
X007138Y007023D03*
X007138Y006767D03*
X007138Y006512D03*
X007138Y006256D03*
X007138Y006000D03*
X007138Y005744D03*
X007138Y005488D03*
X007138Y005232D03*
D17*
X008591Y003833D03*
X009693Y003833D03*
D18*
X001340Y001562D03*
X001361Y008901D03*
X028821Y008922D03*
X028801Y001562D03*
D19*
X017151Y001492D03*
X016151Y001492D03*
D20*
X009711Y002742D03*
X013781Y004082D03*
X014561Y004802D03*
X016341Y004179D03*
X019101Y004142D03*
X019621Y005522D03*
X016371Y006132D03*
X015861Y006242D03*
X015221Y006322D03*
X014531Y006292D03*
X014021Y006802D03*
X013621Y005842D03*
X012021Y005682D03*
X008501Y006242D03*
X006240Y006692D03*
X005201Y006242D03*
X005613Y005417D03*
X005466Y004877D03*
X006240Y004238D03*
X008101Y005202D03*
X015461Y005762D03*
X013541Y008322D03*
X013941Y008722D03*
X012901Y008802D03*
X012181Y008962D03*
X005317Y008041D03*
X003141Y008162D03*
X004880Y009098D03*
X025541Y007122D03*
X025861Y006642D03*
X025941Y006082D03*
D21*
X015416Y004977D03*
X007201Y002342D03*
M02*
