G75*
G70*
%OFA0B0*%
%FSLAX24Y24*%
%IPPOS*%
%LPD*%
%AMOC8*
5,1,8,0,0,1.08239X$1,22.5*
%
%ADD10R,0.0870X0.0240*%
%ADD11R,0.0315X0.0472*%
%ADD12R,0.0472X0.0315*%
%ADD13R,0.0472X0.0551*%
%ADD14R,0.0551X0.0472*%
%ADD15R,0.0984X0.0472*%
D10*
X003902Y004482D03*
X003902Y004982D03*
X003902Y005482D03*
X003902Y005982D03*
X006552Y005982D03*
X006552Y005482D03*
X006552Y004982D03*
X006552Y004482D03*
D11*
G36*
X003205Y007537D02*
X003427Y007759D01*
X003759Y007427D01*
X003537Y007205D01*
X003205Y007537D01*
G37*
G36*
X002704Y007036D02*
X002926Y007258D01*
X003258Y006926D01*
X003036Y006704D01*
X002704Y007036D01*
G37*
D12*
X004232Y007877D03*
X004232Y008586D03*
X006232Y003086D03*
X006232Y002377D03*
D13*
G36*
X002359Y003042D02*
X002693Y002708D01*
X002305Y002320D01*
X001971Y002654D01*
X002359Y003042D01*
G37*
G36*
X003195Y002207D02*
X003529Y001873D01*
X003141Y001485D01*
X002807Y001819D01*
X003195Y002207D01*
G37*
G36*
X007675Y001787D02*
X007341Y001453D01*
X006953Y001841D01*
X007287Y002175D01*
X007675Y001787D01*
G37*
G36*
X008510Y002622D02*
X008176Y002288D01*
X007788Y002676D01*
X008122Y003010D01*
X008510Y002622D01*
G37*
G36*
X007622Y007453D02*
X007288Y007787D01*
X007676Y008175D01*
X008010Y007841D01*
X007622Y007453D01*
G37*
G36*
X006787Y008288D02*
X006453Y008622D01*
X006841Y009010D01*
X007175Y008676D01*
X006787Y008288D01*
G37*
G36*
X002785Y008673D02*
X003119Y009007D01*
X003507Y008619D01*
X003173Y008285D01*
X002785Y008673D01*
G37*
G36*
X001950Y007838D02*
X002284Y008172D01*
X002672Y007784D01*
X002338Y007450D01*
X001950Y007838D01*
G37*
D14*
X005232Y007641D03*
X005232Y008822D03*
X005232Y002822D03*
X005232Y001641D03*
D15*
X008149Y004248D03*
X008149Y005232D03*
X008149Y006216D03*
M02*
