G75*
G70*
%OFA0B0*%
%FSLAX24Y24*%
%IPPOS*%
%LPD*%
%AMOC8*
5,1,8,0,0,1.08239X$1,22.5*
%
%ADD10R,0.0950X0.0320*%
%ADD11R,0.0395X0.0552*%
%ADD12R,0.0552X0.0395*%
%ADD13C,0.0820*%
%ADD14C,0.1380*%
%ADD15R,0.0552X0.0631*%
%ADD16R,0.0631X0.0552*%
%ADD17R,0.1064X0.0552*%
%ADD18C,0.0434*%
%ADD19C,0.0490*%
D10*
X003902Y004482D03*
X003902Y004982D03*
X003902Y005482D03*
X003902Y005982D03*
X006552Y005982D03*
X006552Y005482D03*
X006552Y004982D03*
X006552Y004482D03*
D11*
G36*
X003148Y007537D02*
X003427Y007816D01*
X003816Y007427D01*
X003537Y007148D01*
X003148Y007537D01*
G37*
G36*
X002647Y007036D02*
X002926Y007315D01*
X003315Y006926D01*
X003036Y006647D01*
X002647Y007036D01*
G37*
D12*
X004232Y007877D03*
X004232Y008586D03*
X006232Y003086D03*
X006232Y002377D03*
D13*
X001982Y004662D03*
X001982Y005802D03*
D14*
X001232Y001232D03*
X009232Y001232D03*
X009232Y009232D03*
X001232Y009232D03*
D15*
G36*
X001894Y007838D02*
X002284Y008228D01*
X002728Y007784D01*
X002338Y007394D01*
X001894Y007838D01*
G37*
G36*
X002729Y008673D02*
X003119Y009063D01*
X003563Y008619D01*
X003173Y008229D01*
X002729Y008673D01*
G37*
G36*
X006787Y008232D02*
X006397Y008622D01*
X006841Y009066D01*
X007231Y008676D01*
X006787Y008232D01*
G37*
G36*
X007622Y007397D02*
X007232Y007787D01*
X007676Y008231D01*
X008066Y007841D01*
X007622Y007397D01*
G37*
G36*
X008566Y002622D02*
X008176Y002232D01*
X007732Y002676D01*
X008122Y003066D01*
X008566Y002622D01*
G37*
G36*
X007731Y001787D02*
X007341Y001397D01*
X006897Y001841D01*
X007287Y002231D01*
X007731Y001787D01*
G37*
G36*
X003195Y002263D02*
X003585Y001873D01*
X003141Y001429D01*
X002751Y001819D01*
X003195Y002263D01*
G37*
G36*
X002359Y003098D02*
X002749Y002708D01*
X002305Y002264D01*
X001915Y002654D01*
X002359Y003098D01*
G37*
D16*
X005232Y002822D03*
X005232Y001641D03*
X005232Y007641D03*
X005232Y008822D03*
D17*
X008149Y006216D03*
X008149Y005232D03*
X008149Y004248D03*
D18*
X009232Y003834D03*
X009232Y006629D03*
D19*
X008232Y007232D03*
X007232Y006732D03*
X006232Y006732D03*
X003732Y006732D03*
X003232Y003732D03*
X007232Y003732D03*
M02*
