G75*
G70*
%OFA0B0*%
%FSLAX24Y24*%
%IPPOS*%
%LPD*%
%AMOC8*
5,1,8,0,0,1.08239X$1,22.5*
%
%ADD10C,0.0000*%
%ADD11R,0.0870X0.0240*%
%ADD12R,0.0315X0.0472*%
%ADD13R,0.0472X0.0315*%
%ADD14C,0.0740*%
%ADD15R,0.0472X0.0551*%
%ADD16R,0.0551X0.0472*%
%ADD17R,0.0984X0.0472*%
%ADD18C,0.0100*%
%ADD19C,0.0410*%
D10*
X000232Y000232D02*
X000232Y010228D01*
X010102Y010228D01*
X010102Y000232D01*
X000232Y000232D01*
X000582Y001232D02*
X000584Y001282D01*
X000590Y001332D01*
X000600Y001382D01*
X000613Y001430D01*
X000630Y001478D01*
X000651Y001524D01*
X000675Y001568D01*
X000703Y001610D01*
X000734Y001650D01*
X000768Y001687D01*
X000805Y001722D01*
X000844Y001753D01*
X000885Y001782D01*
X000929Y001807D01*
X000975Y001829D01*
X001022Y001847D01*
X001070Y001861D01*
X001119Y001872D01*
X001169Y001879D01*
X001219Y001882D01*
X001270Y001881D01*
X001320Y001876D01*
X001370Y001867D01*
X001418Y001855D01*
X001466Y001838D01*
X001512Y001818D01*
X001557Y001795D01*
X001600Y001768D01*
X001640Y001738D01*
X001678Y001705D01*
X001713Y001669D01*
X001746Y001630D01*
X001775Y001589D01*
X001801Y001546D01*
X001824Y001501D01*
X001843Y001454D01*
X001858Y001406D01*
X001870Y001357D01*
X001878Y001307D01*
X001882Y001257D01*
X001882Y001207D01*
X001878Y001157D01*
X001870Y001107D01*
X001858Y001058D01*
X001843Y001010D01*
X001824Y000963D01*
X001801Y000918D01*
X001775Y000875D01*
X001746Y000834D01*
X001713Y000795D01*
X001678Y000759D01*
X001640Y000726D01*
X001600Y000696D01*
X001557Y000669D01*
X001512Y000646D01*
X001466Y000626D01*
X001418Y000609D01*
X001370Y000597D01*
X001320Y000588D01*
X001270Y000583D01*
X001219Y000582D01*
X001169Y000585D01*
X001119Y000592D01*
X001070Y000603D01*
X001022Y000617D01*
X000975Y000635D01*
X000929Y000657D01*
X000885Y000682D01*
X000844Y000711D01*
X000805Y000742D01*
X000768Y000777D01*
X000734Y000814D01*
X000703Y000854D01*
X000675Y000896D01*
X000651Y000940D01*
X000630Y000986D01*
X000613Y001034D01*
X000600Y001082D01*
X000590Y001132D01*
X000584Y001182D01*
X000582Y001232D01*
X000582Y009232D02*
X000584Y009282D01*
X000590Y009332D01*
X000600Y009382D01*
X000613Y009430D01*
X000630Y009478D01*
X000651Y009524D01*
X000675Y009568D01*
X000703Y009610D01*
X000734Y009650D01*
X000768Y009687D01*
X000805Y009722D01*
X000844Y009753D01*
X000885Y009782D01*
X000929Y009807D01*
X000975Y009829D01*
X001022Y009847D01*
X001070Y009861D01*
X001119Y009872D01*
X001169Y009879D01*
X001219Y009882D01*
X001270Y009881D01*
X001320Y009876D01*
X001370Y009867D01*
X001418Y009855D01*
X001466Y009838D01*
X001512Y009818D01*
X001557Y009795D01*
X001600Y009768D01*
X001640Y009738D01*
X001678Y009705D01*
X001713Y009669D01*
X001746Y009630D01*
X001775Y009589D01*
X001801Y009546D01*
X001824Y009501D01*
X001843Y009454D01*
X001858Y009406D01*
X001870Y009357D01*
X001878Y009307D01*
X001882Y009257D01*
X001882Y009207D01*
X001878Y009157D01*
X001870Y009107D01*
X001858Y009058D01*
X001843Y009010D01*
X001824Y008963D01*
X001801Y008918D01*
X001775Y008875D01*
X001746Y008834D01*
X001713Y008795D01*
X001678Y008759D01*
X001640Y008726D01*
X001600Y008696D01*
X001557Y008669D01*
X001512Y008646D01*
X001466Y008626D01*
X001418Y008609D01*
X001370Y008597D01*
X001320Y008588D01*
X001270Y008583D01*
X001219Y008582D01*
X001169Y008585D01*
X001119Y008592D01*
X001070Y008603D01*
X001022Y008617D01*
X000975Y008635D01*
X000929Y008657D01*
X000885Y008682D01*
X000844Y008711D01*
X000805Y008742D01*
X000768Y008777D01*
X000734Y008814D01*
X000703Y008854D01*
X000675Y008896D01*
X000651Y008940D01*
X000630Y008986D01*
X000613Y009034D01*
X000600Y009082D01*
X000590Y009132D01*
X000584Y009182D01*
X000582Y009232D01*
X008582Y009232D02*
X008584Y009282D01*
X008590Y009332D01*
X008600Y009382D01*
X008613Y009430D01*
X008630Y009478D01*
X008651Y009524D01*
X008675Y009568D01*
X008703Y009610D01*
X008734Y009650D01*
X008768Y009687D01*
X008805Y009722D01*
X008844Y009753D01*
X008885Y009782D01*
X008929Y009807D01*
X008975Y009829D01*
X009022Y009847D01*
X009070Y009861D01*
X009119Y009872D01*
X009169Y009879D01*
X009219Y009882D01*
X009270Y009881D01*
X009320Y009876D01*
X009370Y009867D01*
X009418Y009855D01*
X009466Y009838D01*
X009512Y009818D01*
X009557Y009795D01*
X009600Y009768D01*
X009640Y009738D01*
X009678Y009705D01*
X009713Y009669D01*
X009746Y009630D01*
X009775Y009589D01*
X009801Y009546D01*
X009824Y009501D01*
X009843Y009454D01*
X009858Y009406D01*
X009870Y009357D01*
X009878Y009307D01*
X009882Y009257D01*
X009882Y009207D01*
X009878Y009157D01*
X009870Y009107D01*
X009858Y009058D01*
X009843Y009010D01*
X009824Y008963D01*
X009801Y008918D01*
X009775Y008875D01*
X009746Y008834D01*
X009713Y008795D01*
X009678Y008759D01*
X009640Y008726D01*
X009600Y008696D01*
X009557Y008669D01*
X009512Y008646D01*
X009466Y008626D01*
X009418Y008609D01*
X009370Y008597D01*
X009320Y008588D01*
X009270Y008583D01*
X009219Y008582D01*
X009169Y008585D01*
X009119Y008592D01*
X009070Y008603D01*
X009022Y008617D01*
X008975Y008635D01*
X008929Y008657D01*
X008885Y008682D01*
X008844Y008711D01*
X008805Y008742D01*
X008768Y008777D01*
X008734Y008814D01*
X008703Y008854D01*
X008675Y008896D01*
X008651Y008940D01*
X008630Y008986D01*
X008613Y009034D01*
X008600Y009082D01*
X008590Y009132D01*
X008584Y009182D01*
X008582Y009232D01*
X009055Y006629D02*
X009057Y006655D01*
X009063Y006681D01*
X009073Y006706D01*
X009086Y006729D01*
X009102Y006749D01*
X009122Y006767D01*
X009144Y006782D01*
X009167Y006794D01*
X009193Y006802D01*
X009219Y006806D01*
X009245Y006806D01*
X009271Y006802D01*
X009297Y006794D01*
X009321Y006782D01*
X009342Y006767D01*
X009362Y006749D01*
X009378Y006729D01*
X009391Y006706D01*
X009401Y006681D01*
X009407Y006655D01*
X009409Y006629D01*
X009407Y006603D01*
X009401Y006577D01*
X009391Y006552D01*
X009378Y006529D01*
X009362Y006509D01*
X009342Y006491D01*
X009320Y006476D01*
X009297Y006464D01*
X009271Y006456D01*
X009245Y006452D01*
X009219Y006452D01*
X009193Y006456D01*
X009167Y006464D01*
X009143Y006476D01*
X009122Y006491D01*
X009102Y006509D01*
X009086Y006529D01*
X009073Y006552D01*
X009063Y006577D01*
X009057Y006603D01*
X009055Y006629D01*
X009055Y003834D02*
X009057Y003860D01*
X009063Y003886D01*
X009073Y003911D01*
X009086Y003934D01*
X009102Y003954D01*
X009122Y003972D01*
X009144Y003987D01*
X009167Y003999D01*
X009193Y004007D01*
X009219Y004011D01*
X009245Y004011D01*
X009271Y004007D01*
X009297Y003999D01*
X009321Y003987D01*
X009342Y003972D01*
X009362Y003954D01*
X009378Y003934D01*
X009391Y003911D01*
X009401Y003886D01*
X009407Y003860D01*
X009409Y003834D01*
X009407Y003808D01*
X009401Y003782D01*
X009391Y003757D01*
X009378Y003734D01*
X009362Y003714D01*
X009342Y003696D01*
X009320Y003681D01*
X009297Y003669D01*
X009271Y003661D01*
X009245Y003657D01*
X009219Y003657D01*
X009193Y003661D01*
X009167Y003669D01*
X009143Y003681D01*
X009122Y003696D01*
X009102Y003714D01*
X009086Y003734D01*
X009073Y003757D01*
X009063Y003782D01*
X009057Y003808D01*
X009055Y003834D01*
X008582Y001232D02*
X008584Y001282D01*
X008590Y001332D01*
X008600Y001382D01*
X008613Y001430D01*
X008630Y001478D01*
X008651Y001524D01*
X008675Y001568D01*
X008703Y001610D01*
X008734Y001650D01*
X008768Y001687D01*
X008805Y001722D01*
X008844Y001753D01*
X008885Y001782D01*
X008929Y001807D01*
X008975Y001829D01*
X009022Y001847D01*
X009070Y001861D01*
X009119Y001872D01*
X009169Y001879D01*
X009219Y001882D01*
X009270Y001881D01*
X009320Y001876D01*
X009370Y001867D01*
X009418Y001855D01*
X009466Y001838D01*
X009512Y001818D01*
X009557Y001795D01*
X009600Y001768D01*
X009640Y001738D01*
X009678Y001705D01*
X009713Y001669D01*
X009746Y001630D01*
X009775Y001589D01*
X009801Y001546D01*
X009824Y001501D01*
X009843Y001454D01*
X009858Y001406D01*
X009870Y001357D01*
X009878Y001307D01*
X009882Y001257D01*
X009882Y001207D01*
X009878Y001157D01*
X009870Y001107D01*
X009858Y001058D01*
X009843Y001010D01*
X009824Y000963D01*
X009801Y000918D01*
X009775Y000875D01*
X009746Y000834D01*
X009713Y000795D01*
X009678Y000759D01*
X009640Y000726D01*
X009600Y000696D01*
X009557Y000669D01*
X009512Y000646D01*
X009466Y000626D01*
X009418Y000609D01*
X009370Y000597D01*
X009320Y000588D01*
X009270Y000583D01*
X009219Y000582D01*
X009169Y000585D01*
X009119Y000592D01*
X009070Y000603D01*
X009022Y000617D01*
X008975Y000635D01*
X008929Y000657D01*
X008885Y000682D01*
X008844Y000711D01*
X008805Y000742D01*
X008768Y000777D01*
X008734Y000814D01*
X008703Y000854D01*
X008675Y000896D01*
X008651Y000940D01*
X008630Y000986D01*
X008613Y001034D01*
X008600Y001082D01*
X008590Y001132D01*
X008584Y001182D01*
X008582Y001232D01*
D11*
X006552Y004482D03*
X006552Y004982D03*
X006552Y005482D03*
X006552Y005982D03*
X003902Y005982D03*
X003902Y005482D03*
X003902Y004982D03*
X003902Y004482D03*
D12*
G36*
X002704Y007036D02*
X002926Y007258D01*
X003258Y006926D01*
X003036Y006704D01*
X002704Y007036D01*
G37*
G36*
X003205Y007537D02*
X003427Y007759D01*
X003759Y007427D01*
X003537Y007205D01*
X003205Y007537D01*
G37*
D13*
X004232Y007877D03*
X004232Y008586D03*
X006232Y003086D03*
X006232Y002377D03*
D14*
X001982Y004662D03*
X001982Y005802D03*
D15*
G36*
X001950Y007838D02*
X002284Y008172D01*
X002672Y007784D01*
X002338Y007450D01*
X001950Y007838D01*
G37*
G36*
X002785Y008673D02*
X003119Y009007D01*
X003507Y008619D01*
X003173Y008285D01*
X002785Y008673D01*
G37*
G36*
X006787Y008288D02*
X006453Y008622D01*
X006841Y009010D01*
X007175Y008676D01*
X006787Y008288D01*
G37*
G36*
X007622Y007453D02*
X007288Y007787D01*
X007676Y008175D01*
X008010Y007841D01*
X007622Y007453D01*
G37*
G36*
X008510Y002622D02*
X008176Y002288D01*
X007788Y002676D01*
X008122Y003010D01*
X008510Y002622D01*
G37*
G36*
X007675Y001787D02*
X007341Y001453D01*
X006953Y001841D01*
X007287Y002175D01*
X007675Y001787D01*
G37*
G36*
X003195Y002207D02*
X003529Y001873D01*
X003141Y001485D01*
X002807Y001819D01*
X003195Y002207D01*
G37*
G36*
X002359Y003042D02*
X002693Y002708D01*
X002305Y002320D01*
X001971Y002654D01*
X002359Y003042D01*
G37*
D16*
X005232Y002822D03*
X005232Y001641D03*
X005232Y007641D03*
X005232Y008822D03*
D17*
X008149Y006216D03*
X008149Y005232D03*
X008149Y004248D03*
D18*
X007232Y003732D02*
X007232Y003567D01*
X008149Y002649D01*
X007314Y001814D02*
X007251Y001877D01*
X006232Y002377D01*
X005996Y001641D01*
X005232Y001641D01*
X002872Y001641D01*
X003168Y001846D01*
X002332Y002681D02*
X002732Y003581D01*
X002732Y004732D01*
X003482Y005482D01*
X003902Y005482D01*
X003482Y005482D02*
X001811Y007153D01*
X002311Y007811D01*
X002981Y006981D02*
X002732Y006732D01*
X003482Y005982D01*
X003902Y005982D01*
X003732Y006732D02*
X003732Y007233D01*
X003482Y007482D01*
X004232Y007232D02*
X004732Y006732D01*
X004732Y005232D01*
X004482Y004982D01*
X003902Y004982D01*
X003902Y004482D02*
X003232Y004482D01*
X003232Y003732D01*
X005232Y002822D02*
X005232Y005232D01*
X005482Y005482D01*
X006552Y005482D01*
X006552Y005982D02*
X006982Y005982D01*
X007232Y005732D01*
X007649Y005732D01*
X008149Y005232D01*
X008149Y006216D02*
X008232Y006299D01*
X008232Y007232D01*
X007649Y007814D02*
X007232Y007397D01*
X007232Y006732D01*
X006552Y006412D02*
X006232Y006732D01*
X006552Y006412D02*
X006552Y005982D01*
X006552Y004982D02*
X005982Y004982D01*
X005732Y004732D01*
X005732Y003732D01*
X006232Y003232D01*
X006232Y003086D01*
X007232Y003732D02*
X006552Y004412D01*
X006552Y004482D01*
X005482Y005482D02*
X005232Y005732D01*
X005232Y007641D01*
X004232Y007877D02*
X004232Y007232D01*
X004232Y008586D02*
X004172Y008646D01*
X003146Y008646D01*
X004232Y008586D02*
X004468Y008822D01*
X005232Y008822D01*
X006641Y008822D01*
X006814Y008649D01*
D19*
X008232Y007232D03*
X007232Y006732D03*
X006232Y006732D03*
X003732Y006732D03*
X003232Y003732D03*
X007232Y003732D03*
M02*
