%
M48
M72
T01C0.0250
T02C0.0400
T03C0.1300
%
T01
X2732Y3732
X2732Y5732
X4232Y7232
X5232Y5232
X7732Y4232
T02
X8735Y2735
X8028Y2028
X5732Y1732
X4732Y1732
X2435Y2028
X1728Y2735
X1732Y4662
X1732Y5802
X1728Y7728
X2435Y8435
X4732Y8732
X5732Y8732
X8025Y8439
X8732Y7732
T03
X1232Y1232
X1232Y9232
X9232Y9232
X9232Y1232
M30
